HIERARCHY
ROOT Hips
{
  OFFSET 179.979 97.3047 303.174
  CHANNELS 6 Xposition Yposition Zposition Zrotation Xrotation Yrotation
  JOINT Spine
  {
    OFFSET 0.000859786 9.92346 -1.22733
    CHANNELS 3 Zrotation Xrotation Yrotation
    JOINT Spine1
    {
      OFFSET 0 11.732 0
      CHANNELS 3 Zrotation Xrotation Yrotation
      JOINT Spine2
      {
        OFFSET 0 13.4588 0
        CHANNELS 3 Zrotation Xrotation Yrotation
        JOINT Neck
        {
          OFFSET 2.54812e-05 15.0278 0.877907
          CHANNELS 3 Zrotation Xrotation Yrotation
          JOINT Head
          {
            OFFSET 0 10.3218 3.14243
            CHANNELS 3 Zrotation Xrotation Yrotation
            End Site
            {
              OFFSET 0 0 0
            }
          }
        }
        JOINT LeftShoulder
        {
          OFFSET 6.10582 9.10629 0.757062
          CHANNELS 3 Zrotation Xrotation Yrotation
          JOINT LeftArm
          {
            OFFSET 0 12.9223 0
            CHANNELS 3 Zrotation Xrotation Yrotation
            JOINT LeftForeArm
            {
              OFFSET 0 27.4047 0
              CHANNELS 3 Zrotation Xrotation Yrotation
              JOINT LeftHand
              {
                OFFSET -1.28204e-05 27.6145 0
                CHANNELS 3 Zrotation Xrotation Yrotation
                End Site
                {
                  OFFSET 0 0 0
                }
              }
            }
          }
        }
        JOINT RightShoulder
        {
          OFFSET -6.1057 9.10638 0.757076
          CHANNELS 3 Zrotation Xrotation Yrotation
          JOINT RightArm
          {
            OFFSET 0 12.9223 0
            CHANNELS 3 Zrotation Xrotation Yrotation
            JOINT RightForeArm
            {
              OFFSET 0 27.4047 0
              CHANNELS 3 Zrotation Xrotation Yrotation
              JOINT RightHand
              {
                OFFSET 1.28428e-05 27.6145 1.44975e-05
                CHANNELS 3 Zrotation Xrotation Yrotation
                End Site
                {
                  OFFSET 0 0 0
                }
              }
            }
          }
        }
      }
    }
  }
  JOINT LeftUpLeg
  {
    OFFSET 9.12387 -6.65719 -0.0554031
    CHANNELS 3 Zrotation Xrotation Yrotation
    JOINT LeftLeg
    {
      OFFSET 0 40.5994 0
      CHANNELS 3 Zrotation Xrotation Yrotation
      JOINT LeftFoot
      {
        OFFSET 0 42.099 0
        CHANNELS 3 Zrotation Xrotation Yrotation
        JOINT LeftToeBase
        {
          OFFSET 0 15.7216 0
          CHANNELS 3 Zrotation Xrotation Yrotation
          End Site
          {
            OFFSET 0 0 0
          }
        }
      }
    }
  }
  JOINT RightUpLeg
  {
    OFFSET -9.12503 -6.6556 -0.0553527
    CHANNELS 3 Zrotation Xrotation Yrotation
    JOINT RightLeg
    {
      OFFSET 0 40.5994 0
      CHANNELS 3 Zrotation Xrotation Yrotation
      JOINT RightFoot
      {
        OFFSET 0 42.099 0
        CHANNELS 3 Zrotation Xrotation Yrotation
        JOINT RightToeBase
        {
          OFFSET 0 15.7216 0
          CHANNELS 3 Zrotation Xrotation Yrotation
          End Site
          {
            OFFSET 0 0 0
          }
        }
      }
    }
  }
}
MOTION
Frames:	20
Frame Time:	0.0333333
-263.294 97.0987 -332.715 10.0602 -7.14106 92.4723 -3.07993 -2.98962 1.10333 -6.29388 7.863 3.17865 -6.66984 14.4473 3.24946 2.70507 13.6923 -2.97711 9.82395 -13.579 -3.22214 -95.7303 -14.4665 90.3125 32.5292 47.4083 3.65913 76.1465 -12.3326 0.23024 34.3993 -17.4096 39.4878 106.544 -8.72561 -91.7672 -10.0574 50.8044 -40.0924 -39.6878 -18.1067 1.05763 -5.08842 -28.1885 -8.87992 -171.355 -1.12573 -6.24013 -4.67198 -30.6884 1.58969 -2.56729 87.4609 9.52447 -0.965275 26.367 -3.60229 172.551 47.0743 12.7596 -172.388 -63.2568 -173.601 12.3703 64.8246 -0.317511 0.963536 26.3682 3.55537 
-262.299 96.9783 -332.773 11.3147 -6.65121 93.0697 -3.16161 -3.04237 0.957223 -6.44593 7.76188 2.90777 -6.78954 14.3479 2.97168 3.19687 14.5279 -3.03477 9.79499 -12.7269 -3.16403 -95.6573 -14.2814 90.339 31.9411 47.9538 3.7338 77.1433 -11.5863 0.286317 36.0945 -20.5331 37.8847 106.545 -8.90987 -91.7229 -9.68736 50.5284 -41.6781 -38.7951 -17.7354 1.03748 -6.75477 -30.5843 -9.54794 -171.574 -3.28197 -6.3253 -4.71834 -30.3657 2.10531 -12.133 87.8307 19.1804 -0.965275 26.367 -3.60229 171.008 48.051 14.7225 -172.454 -63.2395 -173.708 12.3611 64.6106 -0.333985 0.963536 26.3682 3.55537 
-261.153 96.8499 -332.86 12.685 -6.14689 93.664 -3.23765 -3.14377 0.816682 -6.585 7.56391 2.64313 -6.89689 14.1514 2.69983 3.69341 15.8342 -3.09234 9.7411 -11.4787 -3.11442 -95.6009 -14.1184 90.362 31.2574 48.394 4.42032 77.9005 -10.9763 0.330463 36.773 -22.1089 36.9085 106.47 -9.14946 -91.6613 -9.03001 50.4458 -43.4133 -37.8288 -17.4772 1.02162 -8.17476 -34.0437 -9.83623 -171.819 -5.74857 -6.35544 -4.69573 -29.8918 2.63216 -24.894 88.1405 32.0111 -0.965275 26.367 -3.60229 168.955 48.996 16.9691 -172.471 -63.3995 -173.632 12.4118 64.2738 -0.117679 0.963536 26.3682 3.55537 
-259.86 96.6883 -332.977 14.184 -5.70599 94.0956 -3.28221 -3.30118 0.719653 -6.6612 7.25308 2.45226 -6.95004 13.8416 2.50302 4.1494 17.5213 -3.13731 9.6868 -9.88386 -3.07101 -95.5877 -14.0873 90.3667 30.6328 48.7395 5.51715 78.5056 -10.4748 0.366636 36.6273 -22.5836 36.1461 106.271 -9.40993 -91.5887 -7.77225 50.4851 -45.2502 -37.0839 -17.3373 1.01125 -8.86351 -37.2695 -9.75941 -172.094 -8.5117 -6.0566 -4.69104 -29.3366 2.85915 -39.4291 88.5283 46.5176 -0.965275 26.367 -3.60229 166.953 49.8325 19.0299 -172.453 -63.6898 -173.513 12.4139 64.2425 0.0503497 0.963536 26.3682 3.55537 
-258.461 96.4734 -333.116 15.8252 -5.37211 94.4342 -3.28509 -3.47677 0.646367 -6.65473 6.90654 2.29513 -6.92458 13.4958 2.34079 4.61617 19.3591 -3.17859 9.60359 -8.34191 -2.98979 -95.6238 -14.1638 90.3558 30.0939 49.0385 6.66018 79.1296 -9.99106 0.402074 36.1002 -22.4093 35.38 106.024 -9.68359 -91.5116 -6.08915 50.4096 -47.0138 -36.6198 -17.2082 1.00334 -8.98734 -39.5646 -9.45676 -172.32 -11.4895 -5.37709 -4.74889 -28.8008 2.77043 -65.0788 88.9976 72.0882 -0.965275 26.367 -3.60229 165.242 50.5767 20.8735 -172.42 -64.1156 -173.363 11.8427 64.335 0.20086 0.963536 26.3682 3.55537 
-257.002 96.243 -333.262 17.5537 -5.15596 94.8608 -3.25424 -3.64109 0.551952 -6.58022 6.58503 2.0864 -6.82505 13.1752 2.12632 5.21183 21.1747 -3.2665 9.38616 -7.23032 -2.83067 -95.6846 -14.179 90.3541 29.5071 49.332 7.65036 79.8694 -9.44344 0.443517 35.5602 -21.9946 34.637 105.805 -9.997 -91.4276 -4.37423 50.1131 -48.6417 -36.2381 -17.0313 0.993843 -8.95964 -40.9698 -9.18287 -172.336 -14.5485 -4.57391 -4.8293 -28.3101 2.65682 -109.188 89.0781 116.14 -0.965275 26.367 -3.60229 163.638 51.1596 22.6777 -172.332 -64.8256 -173.061 11.3737 64.352 0.510267 0.963536 26.3682 3.55537 
-255.471 95.9548 -333.374 19.2763 -4.79457 95.4479 -3.25397 -3.79239 0.41548 -6.56602 6.29058 1.80375 -6.77717 12.8819 1.83677 5.94756 22.8754 -3.45979 9.01955 -6.50486 -2.64934 -95.7705 -14.0276 90.3766 28.791 49.5478 8.52341 80.7177 -8.8181 0.490551 34.9921 -21.6624 33.7441 105.689 -10.4082 -91.3262 -2.78146 49.5834 -50.2087 -35.7827 -16.8205 0.982321 -8.82069 -41.6705 -8.94927 -172.271 -17.5268 -3.98723 -4.87114 -28.0318 2.81185 -135.095 88.5839 142.045 -0.965275 26.367 -3.60229 161.73 51.6346 24.6447 -172.184 -65.7933 -172.636 11.0124 64.3035 0.925308 0.963536 26.3682 3.55537 
-253.863 95.6286 -333.446 20.9207 -4.20636 96.2469 -3.30691 -3.94063 0.233284 -6.65724 6.00309 1.44532 -6.82584 12.5956 1.47041 6.66587 24.3263 -3.78521 8.66748 -5.77146 -2.6046 -95.8708 -13.8391 90.4049 28.2117 49.6644 9.3471 81.5158 -8.25262 0.534311 34.5496 -21.4437 33.1552 105.754 -10.9134 -91.2104 -1.10934 48.8489 -51.7007 -35.3684 -16.5867 0.97047 -8.44914 -41.7642 -8.61325 -172.191 -20.3254 -3.56614 -4.80495 -27.9809 3.26575 -140.552 87.9394 147.477 -0.965275 26.367 -3.60229 159.388 51.9455 26.9267 -171.983 -67.0834 -172.176 10.3165 64.2496 1.28479 0.963536 26.3682 3.55537 
-252.255 95.3584 -333.497 22.4438 -3.58045 97.3421 -3.3796 -4.09418 0.000390539 -6.78622 5.70756 0.990877 -6.90104 12.3012 1.00664 7.13067 25.4423 -4.21507 8.57444 -4.7638 -2.84751 -95.8973 -13.8243 90.4074 28.2952 49.8605 10.2232 81.7397 -8.14228 0.544897 34.9977 -21.3786 34.1287 105.983 -11.4821 -91.0836 0.83907 48.0207 -53.1043 -35.1459 -16.3318 0.958913 -7.89438 -41.4204 -8.12591 -171.829 -22.7759 -2.98987 -4.75342 -28.1753 3.85289 -137.642 87.4303 144.474 -0.965275 26.367 -3.60229 156.682 51.8704 29.5082 -171.658 -69.0093 -171.789 10.3483 64.0872 1.3237 0.963536 26.3682 3.55537 
-250.664 95.0822 -333.498 23.7954 -2.79647 98.714 -3.50099 -4.25637 -0.275976 -7.01166 5.39663 0.462732 -7.06414 11.9911 0.468344 7.30329 26.2665 -4.69543 8.7703 -3.58995 -3.35144 -95.7384 -13.9231 90.3917 29.1731 50.3301 11.4288 80.6894 -8.93054 0.486303 36.872 -21.7592 36.862 106.244 -12.069 -90.9507 3.11623 47.2326 -54.6599 -35.0071 -16.0681 0.947691 -7.22182 -40.9304 -7.45158 -171.183 -24.6357 -2.34299 -4.79503 -29.0017 4.63465 -130.88 86.8968 137.576 -0.965275 26.367 -3.60229 153.832 51.4375 32.0778 -171.107 -71.6138 -171.304 10.6831 63.6771 1.17588 0.963536 26.3682 3.55537 
-249.099 94.7327 -333.464 24.9815 -1.87866 100.258 -3.66214 -4.41369 -0.567237 -7.31746 5.09633 -0.0839219 -7.30555 11.691 -0.0881052 7.36071 26.8585 -5.15649 9.05639 -2.55474 -3.91061 -95.4982 -13.8483 90.4004 30.3423 50.9936 13.103 78.228 -10.5645 0.354871 39.3981 -22.7131 39.6782 106.374 -12.6934 -90.8027 5.51238 46.6302 -56.5757 -34.6848 -15.754 0.93362 -6.34083 -40.5009 -6.41454 -170.21 -25.9471 -1.78035 -4.84705 -30.4574 5.87358 -123.843 86.0074 130.363 -0.965275 26.367 -3.60229 151.39 50.6412 34.2223 -170.152 -74.9447 -170.588 10.5412 63.508 0.688555 0.963536 26.3682 3.55537 
-247.544 94.3317 -333.43 26.0577 -0.955359 101.733 -3.82314 -4.55222 -0.814393 -7.62638 4.83211 -0.541648 -7.56065 11.4265 -0.553514 7.45382 27.1848 -5.53658 9.2409 -1.8272 -4.34224 -95.435 -13.5073 90.4482 31.1263 51.592 15.0632 75.1131 -12.4314 0.196013 41.0991 -23.7036 41.0858 106.315 -13.3924 -90.6321 7.8397 46.23 -58.8139 -34.1469 -15.3125 0.913398 -5.22146 -40.1246 -4.97626 -169.092 -26.9729 -1.26639 -4.79572 -32.2123 7.29311 -118.844 84.9312 124.938 -0.965275 26.367 -3.60229 149.7 49.3751 35.3746 -168.114 -79.1975 -169.055 11.3922 63.2734 -0.180999 0.963536 26.3682 3.55537 
-245.983 93.9076 -333.425 27.0391 -0.138118 102.93 -3.94373 -4.67752 -0.974005 -7.85902 4.59014 -0.835437 -7.75883 11.1841 -0.851835 7.47913 27.2837 -5.78026 9.37624 -1.44832 -4.63905 -95.6301 -13.1391 90.5036 31.2626 52.0349 17.0278 72.4181 -13.9147 0.0638176 41.4246 -23.9492 41.3024 106.112 -14.1069 -90.4571 10.1349 45.8401 -61.272 -33.6813 -14.7739 0.888359 -4.24355 -39.7789 -3.62599 -168.046 -27.9818 -0.572728 -4.7294 -33.8248 8.46339 -115.813 84.0053 121.394 -0.965275 26.367 -3.60229 148.98 47.9321 35.5279 -162.064 -84.0995 -163.394 12.2525 63.1215 -0.852614 0.963536 26.3682 3.55537 
-244.415 93.3754 -333.432 27.8558 0.593189 103.844 -4.0211 -4.80443 -1.05815 -8.0086 4.34105 -0.990901 -7.89026 10.9347 -1.00936 7.2363 27.3247 -5.86183 9.60446 -1.36529 -4.89078 -95.8862 -13.0294 90.5235 30.9503 52.4371 18.7991 70.7476 -14.7372 -0.014292 40.9628 -23.4137 41.1736 105.83 -14.7034 -90.3126 12.4581 45.2317 -63.8701 -33.532 -14.2825 0.86883 -3.86455 -39.302 -3.02049 -167.178 -29.0565 0.336149 -4.74856 -35.1163 9.26037 -116.794 83.1812 122.013 -0.965275 26.367 -3.60229 149.021 46.5362 34.8342 -100.706 -88.7503 -102.114 12.2026 63.3075 -1.08608 0.963536 26.3682 3.55537 
-242.769 92.7171 -333.406 28.4821 1.40667 104.552 -4.0942 -4.93367 -1.09607 -8.15151 4.08424 -1.05552 -8.0257 10.6778 -1.07449 6.69069 27.4944 -5.79844 9.97788 -1.52765 -5.13599 -95.9528 -13.2615 90.4905 30.4707 52.9091 20.3704 70.0657 -14.9391 -0.040875 40.3813 -22.7235 40.9353 105.493 -15.1147 -90.215 14.748 44.4079 -66.4034 -33.6696 -13.934 0.857849 -3.66103 -37.676 -2.81582 -166.594 -30.1183 1.18091 -4.67766 -36.3361 9.92627 -119.719 82.3593 124.633 -0.965275 26.367 -3.60229 149.355 45.0123 33.7901 -6.67609 -84.5074 -7.99341 12.0835 63.5684 -0.989209 0.963536 26.3682 3.55537 
-241.109 91.969 -333.357 28.9758 2.13457 105.221 -4.13424 -5.04682 -1.1251 -8.22893 3.85959 -1.11062 -8.09677 10.453 -1.12991 5.97995 27.8293 -5.65663 10.4074 -1.8123 -5.37068 -95.7282 -13.6983 90.4242 30.0011 53.373 21.8481 70.088 -14.7259 -0.0317744 39.9489 -22.2383 40.5844 105.068 -15.4061 -90.1485 16.7692 43.6348 -68.5069 -33.9168 -13.637 0.847311 -2.41063 -33.4255 -1.59418 -166.031 -31.0446 1.94824 -4.4278 -37.6243 10.6047 -123.694 81.473 128.441 -0.965275 26.367 -3.60229 150.076 43.3133 32.5776 -0.499056 -78.5534 -1.48336 12.0467 63.9096 -0.440639 0.963536 26.3682 3.55537 
-239.394 91.1033 -333.27 29.337 2.80295 105.957 -4.14835 -5.13968 -1.1705 -8.25436 3.67716 -1.20424 -8.11131 10.2704 -1.22443 5.24244 28.2229 -5.50281 10.7248 -2.02801 -5.58783 -95.3159 -14.0954 90.3638 29.4254 53.4433 23.5305 70.5743 -14.2788 -0.00112826 39.6717 -21.9119 40.2204 104.52 -15.6709 -90.0914 18.4215 43.0753 -70.0883 -34.1546 -13.2298 0.836102 0.0353831 -26.3608 1.05635 -165.457 -31.8373 2.65159 -3.98545 -39.0262 11.2749 -128.752 80.4935 133.609 -0.965275 26.367 -3.60229 151.142 41.5051 31.2784 1.00887 -72.4408 0.503295 11.24 64.8756 0.276121 0.963536 26.3682 3.55537 
-237.674 90.1671 -333.158 29.5026 3.36998 106.754 -4.13033 -5.23391 -1.23935 -8.21505 3.49413 -1.35368 -8.05463 10.087 -1.37547 4.52496 28.571 -5.33187 10.8218 -2.07638 -5.75132 -94.9294 -14.326 90.3293 28.6701 52.6752 25.6095 71.3071 -13.7146 0.0401559 39.4448 -21.6303 39.8442 103.867 -15.9116 -90.0435 19.7719 42.8031 -71.4047 -34.4437 -12.7837 0.828707 2.29301 -18.2827 3.5327 -165.015 -32.4739 3.35734 -3.53647 -40.4109 11.5059 -134.801 79.74 140.618 -0.965275 26.367 -3.60229 152.475 39.6888 29.7634 1.2533 -66.3862 1.01534 10.0429 66.3737 0.598162 0.963536 26.3682 3.55537 
-235.912 89.1461 -333.037 29.4177 3.9155 107.489 -4.09159 -5.34911 -1.30946 -8.13434 3.2696 -1.51231 -7.9555 9.86196 -1.53556 3.87927 28.8591 -5.10721 10.7198 -2.10281 -5.78962 -94.6769 -14.4645 90.3095 27.9427 51.033 27.874 71.9798 -13.21 0.0781648 39.2464 -21.263 39.5583 103.201 -16.0721 -90.016 21.0433 42.6833 -72.7739 -34.9874 -12.5166 0.821219 3.28496 -11.3437 4.16087 -164.939 -33.0678 4.20969 -3.0343 -41.6325 11.3156 -142.207 78.8391 149.066 -0.965275 26.367 -3.60229 154.016 38.0399 27.7277 1.11691 -60.5513 1.32947 7.98866 68.2262 1.30015 0.963536 26.3682 3.55537 
-234.03 87.9879 -332.898 29.081 4.49569 108.089 -4.03939 -5.47821 -1.36023 -8.02762 3.01591 -1.63712 -7.83434 9.60788 -1.66113 3.46613 29.0857 -4.87132 10.5028 -2.36104 -5.66588 -94.4639 -14.6206 90.2878 27.4523 49.0343 29.8184 72.3227 -12.9338 0.0976629 39.1124 -20.8657 39.4029 102.671 -16.1592 -90.0041 22.258 42.4845 -74.1867 -35.9253 -12.4432 0.822863 3.09681 -6.45482 3.25872 -165.315 -33.8401 5.29366 -2.41651 -42.4724 10.7646 -150.508 77.3951 157.886 -0.965275 26.367 -3.60229 155.49 36.5494 25.0412 0.971881 -55.1137 2.03328 6.01973 70.0279 2.9186 0.963536 26.3682 3.55537 
